M48
; DRILL file {KiCad (5.1.6)-1} date 06/14/21 09:51:10
; FORMAT={-:-/ absolute / inch / decimal}
; #@! TF.CreationDate,2021-06-14T09:51:10+02:00
; #@! TF.GenerationSoftware,Kicad,Pcbnew,(5.1.6)-1
; #@! TF.FileFunction,Plated,1,2,PTH
FMAT,2
INCH
T1C0.0118
T2C0.0276
T3C0.0335
T4C0.0360
T5C0.0370
T6C0.0382
T7C0.0394
T8C0.0400
T9C0.0638
%
G90
G05
T1
X3.4553Y-3.878
X3.4685Y-3.2795
X3.47Y-3.795
X3.4724Y-3.1024
X3.525Y-5.035
X3.5265Y-3.3454
X3.535Y-4.91
X3.62Y-3.7611
X3.62Y-3.2265
X3.6299Y-3.6732
X3.63Y-4.705
X3.6339Y-5.1024
X3.6693Y-3.3071
X3.6704Y-3.5365
X3.673Y-3.7767
X3.6772Y-3.2283
X3.755Y-3.1
X3.7598Y-5.3465
X3.7795Y-3.4488
X3.785Y-4.895
X3.84Y-4.085
X3.8425Y-3.5669
X3.8465Y-3.7037
X3.85Y-4.83
X3.8661Y-4.0394
X3.8819Y-5.0472
X3.885Y-4.82
X3.8898Y-3.8031
X3.9213Y-3.7362
X3.93Y-4.08
X3.937Y-3.6378
X3.94Y-3.08
X3.9472Y-4.7898
X3.965Y-3.5197
X3.965Y-4.645
X3.965Y-4.735
X3.9921Y-4.5315
X4.0016Y-4.8465
X4.063Y-3.5
X4.063Y-3.6654
X4.0775Y-4.9625
X4.0787Y-4.0472
X4.08Y-4.385
X4.1308Y-5.1111
X4.1614Y-4.0551
X4.18Y-3.16
X4.252Y-3.5039
X4.2559Y-3.1732
X4.26Y-3.025
X4.315Y-3.585
X4.3504Y-4.1142
X4.355Y-3.0
X4.3725Y-4.4675
X4.3775Y-4.7725
X4.4025Y-4.0325
X4.4055Y-3.5236
X4.4094Y-3.7441
X4.425Y-3.015
X4.4262Y-3.9921
X4.4331Y-3.6969
X4.4506Y-3.963
X4.4632Y-3.6443
X4.475Y-3.055
X4.475Y-3.1
X4.485Y-3.135
X4.4919Y-3.9134
X4.4946Y-4.0586
X4.5Y-3.45
X4.5Y-3.975
X4.5124Y-3.2076
X4.52Y-4.665
X4.5201Y-3.9349
X4.525Y-4.805
X4.53Y-3.355
X4.5349Y-3.6964
X4.535Y-4.59
X4.5382Y-3.7564
X4.54Y-4.525
X4.5512Y-4.1496
X4.5635Y-3.9985
X4.5675Y-4.37
X4.5709Y-3.3386
X4.585Y-3.7442
X4.5985Y-3.9635
X4.6024Y-4.2205
X4.605Y-3.805
X4.65Y-3.725
X4.6535Y-3.5197
X4.6535Y-3.6142
X4.6575Y-4.4825
X4.6716Y-3.1455
X4.685Y-3.378
X4.69Y-4.46
X4.695Y-5.35
X4.7005Y-3.4231
X4.711Y-4.8045
X4.715Y-4.733
X4.7255Y-3.9307
X4.7255Y-4.0152
X4.73Y-3.07
X4.733Y-3.7263
X4.75Y-5.29
X4.755Y-3.5181
X4.76Y-4.175
X4.7812Y-4.999
X4.7825Y-4.8125
X4.8125Y-4.3175
X4.8185Y-3.3421
X4.8228Y-3.2874
X4.825Y-4.4
X4.83Y-5.06
X4.835Y-4.08
X4.835Y-4.08
X4.8369Y-3.825
X4.8425Y-5.34
X4.8467Y-3.2281
X4.8474Y-3.1781
X4.86Y-4.27
X4.872Y-3.5181
X4.89Y-3.9488
X4.892Y-4.082
X4.899Y-4.3365
X4.9067Y-3.5428
X4.9069Y-3.7919
X4.9525Y-4.3925
X4.96Y-3.8
X4.9675Y-3.6325
X4.9725Y-4.215
X4.9725Y-4.3125
X4.9774Y-3.5793
X5.0039Y-3.8031
X5.005Y-4.13
X5.005Y-4.9025
X5.0078Y-4.8328
X5.0276Y-4.5336
X5.0425Y-3.4125
X5.045Y-3.1791
X5.0451Y-3.4801
X5.0489Y-3.2461
X5.05Y-3.3281
X5.063Y-3.8031
X5.0725Y-5.0575
X5.0785Y-4.0665
X5.0794Y-4.2942
X5.085Y-4.255
X5.1167Y-4.0022
X5.135Y-4.975
X5.165Y-4.0325
X5.1812Y-4.75
X5.195Y-4.955
X5.2094Y-4.2594
X5.2125Y-3.8175
X5.22Y-4.6
X5.255Y-4.2975
X5.26Y-4.03
X5.2675Y-4.2625
X5.28Y-4.94
X5.29Y-4.45
X5.2952Y-5.1027
X5.2989Y-3.52
X5.31Y-4.2
X5.31Y-4.61
X5.3475Y-3.4725
X5.3625Y-5.14
X5.3838Y-4.3688
X5.39Y-3.215
X5.4075Y-5.0975
X5.4099Y-3.0976
X5.41Y-4.4325
X5.415Y-3.43
X5.4175Y-5.165
X5.435Y-4.715
X5.4386Y-4.0925
X5.4409Y-4.1299
X5.4575Y-4.37
X5.485Y-3.0874
X5.485Y-3.2638
X5.4882Y-3.4882
X5.4899Y-4.0
X5.49Y-4.48
X5.495Y-4.605
X5.4975Y-4.9925
X5.54Y-3.5175
X5.5669Y-4.126
X5.5709Y-4.185
X5.5725Y-5.095
X5.575Y-3.6525
X5.5893Y-3.2558
X5.591Y-3.5938
X5.5925Y-3.0807
X5.6Y-3.13
X5.6075Y-3.3325
X5.625Y-5.06
X5.65Y-4.67
X5.69Y-5.345
X5.71Y-3.57
X5.71Y-3.21
X5.71Y-4.675
X5.72Y-3.12
X5.725Y-3.625
X5.7605Y-4.1755
X5.775Y-3.915
X5.785Y-4.6137
X5.7875Y-4.495
X5.8075Y-4.67
X5.835Y-5.115
X5.86Y-5.05
X5.882Y-3.2981
X5.8976Y-3.1102
X5.898Y-4.8505
X5.9125Y-4.545
X5.915Y-3.435
X5.9291Y-3.3425
X5.9375Y-3.73
X5.9375Y-4.64
X5.945Y-4.315
X5.9575Y-4.585
X5.9875Y-4.05
X5.995Y-4.4181
X6.005Y-4.16
X6.0069Y-5.0779
X6.007Y-4.9981
X6.01Y-4.7475
X6.025Y-5.12
X6.03Y-3.6081
X6.03Y-3.745
X6.045Y-3.855
X6.0512Y-3.2638
X6.0551Y-3.126
X6.07Y-4.9075
X6.075Y-4.195
X6.0775Y-3.5075
X6.08Y-4.065
X6.0801Y-3.6349
X6.092Y-3.83
X6.0945Y-3.3504
X6.105Y-3.44
X6.112Y-4.853
X6.115Y-4.745
X6.1175Y-4.96
X6.126Y-3.1969
X6.137Y-4.443
X6.137Y-4.5831
X6.1398Y-3.3602
X6.1417Y-3.2953
X6.145Y-3.905
X6.15Y-4.04
X6.165Y-4.1975
X6.187Y-4.778
X6.19Y-4.47
X6.2Y-4.2425
X6.215Y-4.36
X6.219Y-5.0221
X6.22Y-3.58
X6.2281Y-3.7331
X6.2281Y-4.6181
X6.23Y-3.4393
X6.23Y-3.68
X6.23Y-3.805
X6.2347Y-3.6203
X6.265Y-3.52
X6.285Y-4.165
X6.29Y-4.78
X6.3025Y-4.325
X6.3031Y-3.315
X6.325Y-3.6732
X6.33Y-4.108
X6.3346Y-3.1417
X6.34Y-3.335
X6.3536Y-4.4681
X6.3575Y-5.35
X6.36Y-3.45
X6.3791Y-4.7816
X6.395Y-4.1881
X6.4Y-4.86
X6.4025Y-5.1475
X6.42Y-4.24
X6.425Y-4.045
X6.4375Y-4.4825
X6.44Y-3.36
X6.444Y-5.1967
X6.45Y-3.5731
X6.45Y-3.655
X6.4575Y-5.1275
X6.465Y-3.9525
X6.4675Y-4.0825
X6.4716Y-5.0798
X6.495Y-4.3
X6.5Y-4.425
X6.5075Y-4.6675
X6.51Y-3.92
X6.515Y-5.07
X6.52Y-3.395
X6.53Y-3.33
X6.54Y-4.8675
X6.5557Y-4.3243
X6.56Y-5.105
X6.565Y-4.4225
X6.575Y-4.195
X6.595Y-5.2
X6.6025Y-3.8725
X6.6205Y-4.428
X6.6325Y-4.8375
X6.635Y-4.68
X6.65Y-3.655
X6.665Y-3.515
X6.6785Y-4.4289
X6.6825Y-4.6725
X6.695Y-4.2717
X6.7Y-4.0798
X6.718Y-4.4531
X6.74Y-5.275
X6.75Y-3.875
X6.75Y-4.0798
X6.7598Y-3.0551
X6.7606Y-3.2528
X6.7638Y-3.4528
X6.7675Y-4.495
X6.78Y-4.44
X6.782Y-4.2731
X6.7825Y-4.9225
X6.795Y-3.4134
X6.811Y-3.0945
X6.8324Y-4.6949
X6.835Y-5.335
X6.842Y-4.2731
X6.842Y-5.1441
X6.8543Y-3.0787
X6.8625Y-4.0875
X6.89Y-3.87
X6.897Y-5.2081
X6.9291Y-3.0433
X6.9369Y-3.6481
X6.9409Y-3.2953
X6.9489Y-4.2257
X6.952Y-3.7981
X6.97Y-3.87
X6.9764Y-3.2638
X6.98Y-5.3675
X6.9882Y-3.2047
X6.991Y-4.4771
X7.0075Y-4.3325
X7.01Y-4.92
X7.015Y-4.55
X7.0175Y-4.7825
X7.0225Y-4.6075
X7.03Y-4.875
X7.0457Y-3.4608
X7.052Y-3.4257
X7.07Y-3.6981
X7.07Y-4.6457
X7.0725Y-4.74
X7.0781Y-3.4981
X7.08Y-4.1603
X7.095Y-4.32
X7.099Y-4.4121
X7.105Y-5.105
X7.1075Y-5.02
X7.11Y-3.855
X7.11Y-5.3181
X7.1181Y-3.2126
X7.122Y-3.252
X7.129Y-4.744
X7.1378Y-3.1457
X7.14Y-4.64
X7.145Y-3.44
X7.165Y-3.565
X7.165Y-3.855
X7.18Y-3.635
X7.18Y-3.6981
X7.182Y-4.9781
X7.23Y-5.06
X7.24Y-4.975
X7.2506Y-4.4561
X7.26Y-3.42
X7.265Y-3.865
X7.2835Y-3.0827
X7.284Y-4.9078
X7.29Y-3.31
X7.3069Y-3.6531
X7.3093Y-4.4628
X7.312Y-4.6461
X7.3156Y-3.5294
X7.32Y-4.725
X7.3268Y-4.8701
X7.3375Y-3.8875
X7.34Y-4.35
X7.345Y-3.97
X7.35Y-4.46
X7.3543Y-4.9094
X7.3543Y-5.0827
X7.37Y-4.135
X7.405Y-3.98
X7.4175Y-4.0875
X7.4675Y-3.4025
X7.4675Y-3.71
X7.469Y-4.2721
X7.48Y-3.98
X7.4803Y-4.189
X7.4816Y-4.74
X7.4843Y-5.1063
X7.5Y-4.0551
X7.5051Y-3.4551
X7.5051Y-3.6401
X7.5315Y-5.1142
X7.545Y-3.89
X7.55Y-3.355
X7.5551Y-4.5157
X7.5748Y-4.8543
X7.6Y-4.7677
X7.6059Y-4.4346
X7.6142Y-4.8307
X7.622Y-3.1142
X7.625Y-3.97
X7.626Y-3.1772
X7.665Y-3.545
X7.684Y-4.4391
X7.6929Y-4.7677
X7.705Y-3.965
X7.72Y-3.715
X7.7283Y-3.0906
X7.7441Y-3.1969
X7.7598Y-3.8795
X7.76Y-4.27
X7.7799Y-4.4791
X7.782Y-4.6881
X7.8031Y-4.1063
X7.8071Y-3.3819
X7.8071Y-3.4291
X7.817Y-4.4381
X7.832Y-4.4783
X7.832Y-3.983
X7.835Y-4.3
X7.8656Y-3.6944
X7.87Y-3.516
X7.87Y-3.645
X7.87Y-4.6875
X7.872Y-4.4665
X7.8725Y-3.5575
X7.8819Y-4.4213
X7.9016Y-3.2047
X7.9094Y-4.0945
X7.9113Y-4.4612
X7.9213Y-4.3031
X7.925Y-4.24
X7.9375Y-4.6875
X7.9606Y-3.2598
X7.9921Y-3.1063
X8.042Y-3.5481
X8.0441Y-3.0449
X8.06Y-4.2057
X8.06Y-4.305
X8.062Y-3.6131
X8.065Y-3.75
X8.0709Y-3.9921
X8.0787Y-4.7638
X8.086Y-4.5866
X8.1142Y-3.1
T2
X3.495Y-3.99
X3.545Y-3.99
X3.5Y-4.375
X3.55Y-4.375
X5.5225Y-4.0275
X5.5225Y-4.0775
X5.5725Y-4.0275
X5.5725Y-4.0775
X5.6225Y-4.0275
X5.6225Y-4.0775
X5.6725Y-4.0275
X5.6725Y-4.0775
X5.7225Y-4.0275
X5.7225Y-4.0775
T3
X4.835Y-4.775
X4.835Y-4.875
X4.835Y-4.975
X4.935Y-4.775
X4.935Y-4.875
X4.935Y-4.975
T4
X3.4961Y-5.1702
X3.4961Y-5.2702
T5
X3.7213Y-4.5902
X3.7213Y-4.6701
X3.7213Y-4.75
X3.7213Y-4.8299
X3.7913Y-4.55
X3.7913Y-4.6299
X3.7913Y-4.7098
X3.7913Y-4.7898
X3.7199Y-3.5602
X3.7199Y-3.6401
X3.7199Y-3.72
X3.7199Y-3.7999
X3.79Y-3.52
X3.79Y-3.5999
X3.79Y-3.6798
X3.79Y-3.7598
T6
X3.5149Y-4.5321
X3.5149Y-4.6125
X3.5149Y-4.6928
X3.5149Y-4.7731
X3.5748Y-4.5723
X3.5748Y-4.6526
X3.5748Y-4.7329
X3.5748Y-4.8132
X3.5136Y-3.5021
X3.5136Y-3.5825
X3.5136Y-3.6628
X3.5136Y-3.7431
X3.5734Y-3.5423
X3.5734Y-3.6226
X3.5734Y-3.7029
X3.5734Y-3.7832
T7
X4.075Y-3.28
X4.175Y-3.28
X5.8825Y-4.0775
X5.8825Y-4.1775
T8
X4.3942Y-5.2312
X4.4942Y-5.2312
X4.5942Y-5.2312
X4.6942Y-5.2312
X4.7942Y-5.2312
X4.8942Y-5.2312
X4.9942Y-5.2312
X5.0942Y-5.2312
X5.1942Y-5.2312
X5.2942Y-5.2312
X5.3942Y-5.2312
X5.4942Y-5.2312
X5.5942Y-5.2312
X5.6942Y-5.2312
X5.7942Y-5.2312
X5.8942Y-5.2312
X5.9942Y-5.2312
X6.0942Y-5.2312
X6.1942Y-5.2312
X6.2942Y-5.2312
X6.3942Y-5.2312
X6.4942Y-5.2312
T9
X3.7563Y-4.3697
X3.7563Y-5.0098
X3.755Y-3.3397
X3.755Y-3.9798
T0
M30
