%TF.GenerationSoftware,KiCad,Pcbnew,(5.1.6)-1*%
%TF.CreationDate,2021-06-14T09:51:15+02:00*%
%TF.ProjectId,ST25.004,53543235-2e30-4303-942e-6b696361645f,rev?*%
%TF.SameCoordinates,Original*%
%TF.FileFunction,Paste,Top*%
%TF.FilePolarity,Positive*%
%FSLAX46Y46*%
G04 Gerber Fmt 4.6, Leading zero omitted, Abs format (unit mm)*
G04 Created by KiCad (PCBNEW (5.1.6)-1) date 2021-06-14 09:51:15*
%MOMM*%
%LPD*%
G01*
G04 APERTURE LIST*
%ADD10R,1.300000X1.600000*%
%ADD11R,1.300000X1.500000*%
%ADD12R,1.600000X1.300000*%
%ADD13R,1.400000X1.800000*%
%ADD14R,1.500000X1.300000*%
%ADD15R,1.800000X1.400000*%
%ADD16R,1.000000X1.400000*%
%ADD17R,1.400000X1.000000*%
%ADD18R,1.600000X1.400000*%
%ADD19R,1.400000X1.600000*%
%ADD20R,1.117600X0.355600*%
%ADD21R,0.355600X1.117600*%
%ADD22R,1.500000X1.500000*%
G04 APERTURE END LIST*
D10*
%TO.C,C4*%
X157600000Y-79800000D03*
X159600000Y-79800000D03*
%TD*%
D11*
%TO.C,R35*%
X132654000Y-115062000D03*
X134554000Y-115062000D03*
%TD*%
%TO.C,R21*%
X132400000Y-122936000D03*
X134300000Y-122936000D03*
%TD*%
D10*
%TO.C,C247*%
X113903000Y-104521000D03*
X111903000Y-104521000D03*
%TD*%
D12*
%TO.C,C244*%
X195630600Y-104075600D03*
X195630600Y-102075600D03*
%TD*%
D10*
%TO.C,C61*%
X111776000Y-112014000D03*
X113776000Y-112014000D03*
%TD*%
D12*
%TO.C,C60*%
X112776000Y-125333000D03*
X112776000Y-123333000D03*
%TD*%
D10*
%TO.C,C58*%
X105000000Y-133365000D03*
X103000000Y-133365000D03*
%TD*%
%TO.C,C57*%
X98822000Y-131064000D03*
X100822000Y-131064000D03*
%TD*%
%TO.C,C54*%
X96700000Y-131065000D03*
X94700000Y-131065000D03*
%TD*%
D12*
%TO.C,C52*%
X116840000Y-113935000D03*
X116840000Y-115935000D03*
%TD*%
D10*
%TO.C,C39*%
X121900000Y-98800000D03*
X123900000Y-98800000D03*
%TD*%
D12*
%TO.C,C205*%
X116000000Y-81500000D03*
X116000000Y-83500000D03*
%TD*%
D10*
%TO.C,C16*%
X112525300Y-128333500D03*
X114525300Y-128333500D03*
%TD*%
D13*
%TO.C,D3*%
X101297000Y-80518000D03*
X104697000Y-80518000D03*
%TD*%
D12*
%TO.C,C29*%
X176403000Y-122666000D03*
X176403000Y-120666000D03*
%TD*%
%TO.C,C27*%
X170434000Y-122666000D03*
X170434000Y-120666000D03*
%TD*%
%TO.C,C26*%
X173355000Y-120729500D03*
X173355000Y-122729500D03*
%TD*%
D11*
%TO.C,R39*%
X167452000Y-124841000D03*
X169352000Y-124841000D03*
%TD*%
D14*
%TO.C,R33*%
X91948000Y-78806000D03*
X91948000Y-80706000D03*
%TD*%
%TO.C,R34*%
X89662000Y-80706000D03*
X89662000Y-78806000D03*
%TD*%
D13*
%TO.C,D2*%
X140032000Y-107886500D03*
X143432000Y-107886500D03*
%TD*%
D11*
%TO.C,R23*%
X145989000Y-107823000D03*
X147889000Y-107823000D03*
%TD*%
%TO.C,R22*%
X150810000Y-100584000D03*
X148910000Y-100584000D03*
%TD*%
D15*
%TO.C,D209*%
X157149600Y-122635400D03*
X157149600Y-126035400D03*
%TD*%
D12*
%TO.C,C204*%
X148717000Y-110823500D03*
X148717000Y-112823500D03*
%TD*%
D13*
%TO.C,D215*%
X173496500Y-117538500D03*
X176896500Y-117538500D03*
%TD*%
D10*
%TO.C,C17*%
X183245000Y-88851600D03*
X181245000Y-88851600D03*
%TD*%
D12*
%TO.C,C28*%
X202057000Y-93837000D03*
X202057000Y-91837000D03*
%TD*%
D10*
%TO.C,C252-2*%
X173498000Y-88265000D03*
X175498000Y-88265000D03*
%TD*%
%TO.C,C251-2*%
X187817000Y-88011000D03*
X185817000Y-88011000D03*
%TD*%
%TO.C,C250-2*%
X187817000Y-96774000D03*
X185817000Y-96774000D03*
%TD*%
%TO.C,C59*%
X98822000Y-133477000D03*
X100822000Y-133477000D03*
%TD*%
D14*
%TO.C,R31*%
X113284000Y-116520000D03*
X113284000Y-114620000D03*
%TD*%
D11*
%TO.C,R30*%
X116271000Y-123571000D03*
X118171000Y-123571000D03*
%TD*%
D12*
%TO.C,C10*%
X113284000Y-120634000D03*
X113284000Y-118634000D03*
%TD*%
D10*
%TO.C,C9*%
X118043200Y-125679200D03*
X116043200Y-125679200D03*
%TD*%
%TO.C,C263-2*%
X166989000Y-96774000D03*
X164989000Y-96774000D03*
%TD*%
%TO.C,C262-2*%
X142129000Y-113792000D03*
X144129000Y-113792000D03*
%TD*%
%TO.C,C261-2*%
X167116000Y-89281000D03*
X165116000Y-89281000D03*
%TD*%
%TO.C,C260-2*%
X162290000Y-97663000D03*
X160290000Y-97663000D03*
%TD*%
%TO.C,C253-2*%
X173625000Y-94107000D03*
X175625000Y-94107000D03*
%TD*%
D11*
%TO.C,R29*%
X127442000Y-78232000D03*
X125542000Y-78232000D03*
%TD*%
%TO.C,R259*%
X109413000Y-78232000D03*
X111313000Y-78232000D03*
%TD*%
%TO.C,R258*%
X105349000Y-78232000D03*
X107249000Y-78232000D03*
%TD*%
D14*
%TO.C,R20*%
X178993600Y-101993600D03*
X178993600Y-100093600D03*
%TD*%
%TO.C,R19*%
X182930600Y-101993600D03*
X182930600Y-100093600D03*
%TD*%
%TO.C,R18*%
X180898600Y-101993600D03*
X180898600Y-100093600D03*
%TD*%
%TO.C,R17*%
X184962600Y-101993600D03*
X184962600Y-100093600D03*
%TD*%
%TO.C,R16*%
X167309600Y-101993600D03*
X167309600Y-100093600D03*
%TD*%
%TO.C,R15*%
X169214600Y-101993600D03*
X169214600Y-100093600D03*
%TD*%
%TO.C,R14*%
X171119600Y-101993600D03*
X171119600Y-100093600D03*
%TD*%
%TO.C,R13*%
X173151600Y-101993600D03*
X173151600Y-100093600D03*
%TD*%
%TO.C,R12*%
X177088600Y-101993600D03*
X177088600Y-100093600D03*
%TD*%
%TO.C,R11*%
X175056600Y-101993600D03*
X175056600Y-100093600D03*
%TD*%
D11*
%TO.C,R10*%
X168350000Y-79200000D03*
X170250000Y-79200000D03*
%TD*%
%TO.C,R9*%
X168350000Y-81500000D03*
X170250000Y-81500000D03*
%TD*%
%TO.C,R8*%
X168250000Y-84400000D03*
X170150000Y-84400000D03*
%TD*%
%TO.C,R7*%
X183950000Y-83700000D03*
X182050000Y-83700000D03*
%TD*%
%TO.C,R6*%
X184050000Y-81300000D03*
X182150000Y-81300000D03*
%TD*%
%TO.C,R5*%
X148320600Y-79453600D03*
X146420600Y-79453600D03*
%TD*%
%TO.C,R4*%
X146420600Y-81485600D03*
X148320600Y-81485600D03*
%TD*%
%TO.C,R3*%
X146420600Y-84152600D03*
X148320600Y-84152600D03*
%TD*%
%TO.C,R2*%
X146243000Y-87376000D03*
X148143000Y-87376000D03*
%TD*%
%TO.C,R1*%
X163129000Y-83009600D03*
X161229000Y-83009600D03*
%TD*%
D14*
%TO.C,R257*%
X139319000Y-86250000D03*
X139319000Y-84350000D03*
%TD*%
%TO.C,R256*%
X139319000Y-79750000D03*
X139319000Y-81650000D03*
%TD*%
%TO.C,R279*%
X204100000Y-96550000D03*
X204100000Y-98450000D03*
%TD*%
%TO.C,R278*%
X203900000Y-82689600D03*
X203900000Y-80789600D03*
%TD*%
%TO.C,R266*%
X141986000Y-120457000D03*
X141986000Y-118557000D03*
%TD*%
%TO.C,R260*%
X200000000Y-87150000D03*
X200000000Y-85250000D03*
%TD*%
%TO.C,R252*%
X197535600Y-102120600D03*
X197535600Y-100220600D03*
%TD*%
%TO.C,R250*%
X194200000Y-98310600D03*
X194200000Y-96410600D03*
%TD*%
%TO.C,R243*%
X198600000Y-107708600D03*
X198600000Y-105808600D03*
%TD*%
%TO.C,R251*%
X193725600Y-104025600D03*
X193725600Y-102125600D03*
%TD*%
D11*
%TO.C,R249*%
X192902600Y-109044600D03*
X194802600Y-109044600D03*
%TD*%
D14*
%TO.C,R215*%
X135763000Y-78679000D03*
X135763000Y-80579000D03*
%TD*%
%TO.C,R261*%
X135686600Y-82821600D03*
X135686600Y-84721600D03*
%TD*%
%TO.C,R277*%
X120294400Y-123395700D03*
X120294400Y-125295700D03*
%TD*%
D11*
%TO.C,R268*%
X154548600Y-129466200D03*
X156448600Y-129466200D03*
%TD*%
D14*
%TO.C,R244*%
X131444800Y-95008600D03*
X131444800Y-93108600D03*
%TD*%
D11*
%TO.C,R276*%
X147105000Y-92964000D03*
X148805000Y-92964000D03*
%TD*%
D14*
%TO.C,R255*%
X132334000Y-106487000D03*
X132334000Y-104587000D03*
%TD*%
%TO.C,R254*%
X133400600Y-98300500D03*
X133400600Y-100200500D03*
%TD*%
%TO.C,R253*%
X129921000Y-106487000D03*
X129921000Y-104587000D03*
%TD*%
%TO.C,R248*%
X127889000Y-110492500D03*
X127889000Y-112392500D03*
%TD*%
%TO.C,R247*%
X117411500Y-109095500D03*
X117411500Y-110995500D03*
%TD*%
%TO.C,R262*%
X107200000Y-103550000D03*
X107200000Y-101650000D03*
%TD*%
%TO.C,R263*%
X109200000Y-103550000D03*
X109200000Y-101650000D03*
%TD*%
D11*
%TO.C,R246*%
X103312000Y-78232000D03*
X101412000Y-78232000D03*
%TD*%
%TO.C,R32*%
X118171000Y-118618000D03*
X116271000Y-118618000D03*
%TD*%
%TO.C,R270*%
X103021500Y-131243500D03*
X104921500Y-131243500D03*
%TD*%
%TO.C,R271*%
X94750000Y-133465000D03*
X96650000Y-133465000D03*
%TD*%
D14*
%TO.C,R269*%
X92300000Y-133215000D03*
X92300000Y-131315000D03*
%TD*%
%TO.C,R225*%
X120700000Y-84643000D03*
X120700000Y-82743000D03*
%TD*%
%TO.C,R224*%
X124510600Y-82435600D03*
X124510600Y-80535600D03*
%TD*%
D11*
%TO.C,R223*%
X181670800Y-108079400D03*
X179770800Y-108079400D03*
%TD*%
D14*
%TO.C,R222*%
X187248600Y-132146000D03*
X187248600Y-134046000D03*
%TD*%
%TO.C,R226*%
X190000000Y-118950000D03*
X190000000Y-117050000D03*
%TD*%
%TO.C,R227*%
X189900000Y-113200000D03*
X189900000Y-115100000D03*
%TD*%
%TO.C,R242*%
X135889800Y-100418800D03*
X135889800Y-98518800D03*
%TD*%
%TO.C,R202*%
X146494500Y-110937000D03*
X146494500Y-112837000D03*
%TD*%
%TO.C,R201*%
X159766000Y-126367500D03*
X159766000Y-128267500D03*
%TD*%
%TO.C,R203*%
X118500000Y-83450000D03*
X118500000Y-81550000D03*
%TD*%
%TO.C,R204*%
X131292400Y-86474200D03*
X131292400Y-84574200D03*
%TD*%
%TO.C,R205*%
X129514400Y-88480800D03*
X129514400Y-86580800D03*
%TD*%
%TO.C,R206*%
X113300000Y-83350000D03*
X113300000Y-81450000D03*
%TD*%
D11*
%TO.C,R209*%
X190050000Y-127900000D03*
X188150000Y-127900000D03*
%TD*%
%TO.C,R267*%
X189296000Y-131445000D03*
X191196000Y-131445000D03*
%TD*%
%TO.C,R207*%
X192850000Y-111051200D03*
X194750000Y-111051200D03*
%TD*%
%TO.C,R208*%
X196650000Y-111127400D03*
X198550000Y-111127400D03*
%TD*%
%TO.C,R210*%
X194045600Y-114277000D03*
X195945600Y-114277000D03*
%TD*%
D14*
%TO.C,R211*%
X198900000Y-98539200D03*
X198900000Y-96639200D03*
%TD*%
%TO.C,R241*%
X133629200Y-83400800D03*
X133629200Y-81500800D03*
%TD*%
%TO.C,R216*%
X131622600Y-80891200D03*
X131622600Y-82791200D03*
%TD*%
D11*
%TO.C,R217*%
X129656600Y-78971000D03*
X131556600Y-78971000D03*
%TD*%
D14*
%TO.C,R218*%
X196600000Y-85250000D03*
X196600000Y-87150000D03*
%TD*%
%TO.C,R219*%
X191770000Y-81981000D03*
X191770000Y-83881000D03*
%TD*%
%TO.C,R221*%
X197586400Y-116121000D03*
X197586400Y-118021000D03*
%TD*%
D11*
%TO.C,R230*%
X191150000Y-123300000D03*
X189250000Y-123300000D03*
%TD*%
D14*
%TO.C,R232*%
X177647400Y-106469000D03*
X177647400Y-108369000D03*
%TD*%
%TO.C,R231*%
X194200000Y-117350000D03*
X194200000Y-119250000D03*
%TD*%
%TO.C,R233*%
X182727400Y-110609200D03*
X182727400Y-112509200D03*
%TD*%
D11*
%TO.C,R229*%
X182433000Y-131699000D03*
X180533000Y-131699000D03*
%TD*%
%TO.C,R228*%
X175224200Y-134366000D03*
X177124200Y-134366000D03*
%TD*%
%TO.C,R235*%
X174183000Y-114998500D03*
X176083000Y-114998500D03*
%TD*%
%TO.C,R237*%
X175834000Y-130492500D03*
X177734000Y-130492500D03*
%TD*%
D14*
%TO.C,R220*%
X195200000Y-80076000D03*
X195200000Y-81976000D03*
%TD*%
D11*
%TO.C,R239*%
X137226000Y-115316000D03*
X139126000Y-115316000D03*
%TD*%
%TO.C,R238*%
X134173000Y-118618000D03*
X132273000Y-118618000D03*
%TD*%
D14*
%TO.C,R240*%
X147574000Y-120081000D03*
X147574000Y-121981000D03*
%TD*%
D11*
%TO.C,R38*%
X135062000Y-127127000D03*
X133162000Y-127127000D03*
%TD*%
%TO.C,R25*%
X198050000Y-82800000D03*
X199950000Y-82800000D03*
%TD*%
D14*
%TO.C,R27*%
X201100000Y-77850000D03*
X201100000Y-79750000D03*
%TD*%
%TO.C,R26*%
X198400000Y-79750000D03*
X198400000Y-77850000D03*
%TD*%
%TO.C,R28*%
X192000000Y-79850000D03*
X192000000Y-77950000D03*
%TD*%
%TO.C,R24*%
X187000000Y-77950000D03*
X187000000Y-79850000D03*
%TD*%
D10*
%TO.C,C22*%
X177500000Y-79800000D03*
X179500000Y-79800000D03*
%TD*%
%TO.C,C19*%
X157895600Y-89232600D03*
X155895600Y-89232600D03*
%TD*%
%TO.C,C18*%
X157908500Y-114871500D03*
X155908500Y-114871500D03*
%TD*%
%TO.C,C264*%
X162163000Y-100711000D03*
X160163000Y-100711000D03*
%TD*%
D12*
%TO.C,C254*%
X165658600Y-105631600D03*
X165658600Y-107631600D03*
%TD*%
D10*
%TO.C,C253*%
X173548600Y-96471600D03*
X175548600Y-96471600D03*
%TD*%
%TO.C,C252*%
X173498000Y-90805000D03*
X175498000Y-90805000D03*
%TD*%
%TO.C,C260*%
X162340600Y-94820600D03*
X160340600Y-94820600D03*
%TD*%
%TO.C,C250*%
X187817000Y-94488000D03*
X185817000Y-94488000D03*
%TD*%
%TO.C,C251*%
X188452000Y-91313000D03*
X186452000Y-91313000D03*
%TD*%
%TO.C,C261*%
X167243000Y-91948000D03*
X165243000Y-91948000D03*
%TD*%
%TO.C,C262*%
X142052600Y-116410600D03*
X144052600Y-116410600D03*
%TD*%
%TO.C,C263*%
X167039600Y-94615000D03*
X165039600Y-94615000D03*
%TD*%
%TO.C,C235*%
X198205400Y-92687000D03*
X196205400Y-92687000D03*
%TD*%
%TO.C,C236*%
X202800000Y-111864000D03*
X204800000Y-111864000D03*
%TD*%
%TO.C,C234*%
X198256200Y-90502600D03*
X196256200Y-90502600D03*
%TD*%
%TO.C,C64*%
X150206000Y-125656200D03*
X152206000Y-125656200D03*
%TD*%
D12*
%TO.C,C63*%
X164401500Y-125460000D03*
X164401500Y-123460000D03*
%TD*%
D10*
%TO.C,C239*%
X204800000Y-114073800D03*
X202800000Y-114073800D03*
%TD*%
D12*
%TO.C,C237*%
X203900000Y-118452000D03*
X203900000Y-116452000D03*
%TD*%
D10*
%TO.C,C240*%
X123800000Y-84889200D03*
X125800000Y-84889200D03*
%TD*%
%TO.C,C242*%
X137779000Y-95313500D03*
X135779000Y-95313500D03*
%TD*%
D12*
%TO.C,C49*%
X168211500Y-115586000D03*
X168211500Y-117586000D03*
%TD*%
D10*
%TO.C,C241*%
X137702600Y-92890200D03*
X135702600Y-92890200D03*
%TD*%
%TO.C,C238*%
X199790000Y-117370000D03*
X201790000Y-117370000D03*
%TD*%
D12*
%TO.C,C243*%
X149809000Y-119957200D03*
X149809000Y-121957200D03*
%TD*%
D10*
%TO.C,C232*%
X183346400Y-124564000D03*
X181346400Y-124564000D03*
%TD*%
%TO.C,C42*%
X144923000Y-129032000D03*
X146923000Y-129032000D03*
%TD*%
D12*
%TO.C,C41*%
X128676200Y-93058600D03*
X128676200Y-95058600D03*
%TD*%
%TO.C,C24*%
X131191000Y-98314000D03*
X131191000Y-100314000D03*
%TD*%
%TO.C,C23*%
X129057200Y-98250500D03*
X129057200Y-100250500D03*
%TD*%
%TO.C,C37*%
X135382000Y-109902500D03*
X135382000Y-107902500D03*
%TD*%
%TO.C,C36*%
X120650000Y-109045500D03*
X120650000Y-111045500D03*
%TD*%
D10*
%TO.C,C53*%
X111903000Y-109601000D03*
X113903000Y-109601000D03*
%TD*%
%TO.C,C55*%
X118221000Y-121031000D03*
X116221000Y-121031000D03*
%TD*%
%TO.C,C220*%
X183657800Y-108181000D03*
X185657800Y-108181000D03*
%TD*%
D12*
%TO.C,C223*%
X185013400Y-132096000D03*
X185013400Y-134096000D03*
%TD*%
%TO.C,C221*%
X189900000Y-109568600D03*
X189900000Y-111568600D03*
%TD*%
%TO.C,C20*%
X133349800Y-95033200D03*
X133349800Y-93033200D03*
%TD*%
D10*
%TO.C,C206*%
X189195000Y-133858000D03*
X191195000Y-133858000D03*
%TD*%
D12*
%TO.C,C207*%
X201600000Y-98600000D03*
X201600000Y-96600000D03*
%TD*%
%TO.C,C216*%
X133654600Y-87108400D03*
X133654600Y-85108400D03*
%TD*%
%TO.C,C218*%
X129717600Y-82815800D03*
X129717600Y-80815800D03*
%TD*%
%TO.C,C219*%
X194000000Y-87233000D03*
X194000000Y-85233000D03*
%TD*%
D10*
%TO.C,C215*%
X123555000Y-78232000D03*
X121555000Y-78232000D03*
%TD*%
%TO.C,C7*%
X189200000Y-125600000D03*
X191200000Y-125600000D03*
%TD*%
D12*
%TO.C,C227*%
X147853200Y-126935600D03*
X147853200Y-124935600D03*
%TD*%
%TO.C,C226*%
X171069000Y-117649500D03*
X171069000Y-115649500D03*
%TD*%
%TO.C,C225*%
X145161000Y-126984000D03*
X145161000Y-124984000D03*
%TD*%
%TO.C,C224*%
X172275500Y-127968500D03*
X172275500Y-129968500D03*
%TD*%
D10*
%TO.C,C1*%
X124952000Y-101790500D03*
X122952000Y-101790500D03*
%TD*%
D12*
%TO.C,C2*%
X139573000Y-120507000D03*
X139573000Y-118507000D03*
%TD*%
%TO.C,C3*%
X136525000Y-120507000D03*
X136525000Y-118507000D03*
%TD*%
D10*
%TO.C,C5*%
X136414000Y-122936000D03*
X138414000Y-122936000D03*
%TD*%
D12*
%TO.C,C8*%
X189600000Y-77900000D03*
X189600000Y-79900000D03*
%TD*%
D13*
%TO.C,D217*%
X174855200Y-127952500D03*
X178255200Y-127952500D03*
%TD*%
%TO.C,D213*%
X179021000Y-134366000D03*
X182421000Y-134366000D03*
%TD*%
D15*
%TO.C,D210*%
X118491000Y-102440000D03*
X118491000Y-105840000D03*
%TD*%
D16*
%TO.C,D211*%
X167807400Y-133614200D03*
X169707400Y-133614200D03*
X168757400Y-131414200D03*
%TD*%
D17*
%TO.C,D207*%
X202700000Y-102273000D03*
X202700000Y-100373000D03*
X200500000Y-101323000D03*
%TD*%
%TO.C,D202*%
X144038500Y-99819500D03*
X144038500Y-97919500D03*
X141838500Y-98869500D03*
%TD*%
%TO.C,D203*%
X144038500Y-95882500D03*
X144038500Y-93982500D03*
X141838500Y-94932500D03*
%TD*%
D16*
%TO.C,D205*%
X108651000Y-83777000D03*
X110551000Y-83777000D03*
X109601000Y-81577000D03*
%TD*%
D17*
%TO.C,IC12*%
X116603600Y-127485100D03*
X116603600Y-129385100D03*
X118803600Y-128435100D03*
%TD*%
%TO.C,IC13*%
X115359000Y-77155000D03*
X115359000Y-79055000D03*
X117559000Y-78105000D03*
%TD*%
D18*
%TO.C,L2*%
X123444000Y-107235500D03*
X123444000Y-105235500D03*
%TD*%
D13*
%TO.C,D10*%
X146572500Y-90297000D03*
X149972500Y-90297000D03*
%TD*%
%TO.C,D13*%
X146890000Y-97726500D03*
X150290000Y-97726500D03*
%TD*%
D19*
%TO.C,L1*%
X113903000Y-106934000D03*
X111903000Y-106934000D03*
%TD*%
D13*
%TO.C,D1*%
X193000000Y-106758600D03*
X196400000Y-106758600D03*
%TD*%
D16*
%TO.C,T201*%
X204250000Y-84900000D03*
X202350000Y-84900000D03*
X203300000Y-87100000D03*
%TD*%
D20*
%TO.C,T203*%
X185775400Y-83289000D03*
X185775400Y-82628600D03*
X185775400Y-81968200D03*
X187705800Y-81968200D03*
X187705800Y-82628600D03*
X187705800Y-83289000D03*
%TD*%
D21*
%TO.C,T204*%
X166268400Y-82245200D03*
X165608000Y-82245200D03*
X164947600Y-82245200D03*
X164947600Y-80314800D03*
X165608000Y-80314800D03*
X166268400Y-80314800D03*
%TD*%
D20*
%TO.C,T205*%
X160375400Y-86845000D03*
X160375400Y-86184600D03*
X160375400Y-85524200D03*
X162305800Y-85524200D03*
X162305800Y-86184600D03*
X162305800Y-86845000D03*
%TD*%
D21*
%TO.C,T206*%
X144348000Y-85752800D03*
X143687600Y-85752800D03*
X143027200Y-85752800D03*
X143027200Y-83822400D03*
X143687600Y-83822400D03*
X144348000Y-83822400D03*
%TD*%
%TO.C,T207*%
X144348000Y-81434800D03*
X143687600Y-81434800D03*
X143027200Y-81434800D03*
X143027200Y-79504400D03*
X143687600Y-79504400D03*
X144348000Y-79504400D03*
%TD*%
D22*
%TO.C,LED1*%
X95377000Y-77371000D03*
X95377000Y-80871000D03*
%TD*%
%TO.C,LED2*%
X98171000Y-77371000D03*
X98171000Y-80871000D03*
%TD*%
M02*
