%TF.GenerationSoftware,KiCad,Pcbnew,(5.1.6)-1*%
%TF.CreationDate,2021-06-14T09:51:15+02:00*%
%TF.ProjectId,ST25.004,53543235-2e30-4303-942e-6b696361645f,rev?*%
%TF.SameCoordinates,Original*%
%TF.FileFunction,Legend,Bot*%
%TF.FilePolarity,Positive*%
%FSLAX46Y46*%
G04 Gerber Fmt 4.6, Leading zero omitted, Abs format (unit mm)*
G04 Created by KiCad (PCBNEW (5.1.6)-1) date 2021-06-14 09:51:15*
%MOMM*%
%LPD*%
G01*
G04 APERTURE LIST*
%ADD10C,0.065024*%
%ADD11C,0.200000*%
%ADD12C,0.120000*%
%ADD13C,0.127000*%
%ADD14C,0.203200*%
%ADD15C,0.152400*%
%ADD16C,0.050800*%
%ADD17C,0.254000*%
%ADD18C,0.100000*%
%ADD19C,0.150000*%
%ADD20C,0.096520*%
%ADD21C,0.120650*%
%ADD22C,0.135128*%
G04 APERTURE END LIST*
D10*
X123803886Y-114082769D02*
X123730347Y-114046000D01*
X123656808Y-113972460D01*
X123546499Y-113862152D01*
X123472960Y-113825382D01*
X123399421Y-113825382D01*
X123436191Y-114009230D02*
X123362652Y-113972460D01*
X123289113Y-113898921D01*
X123252343Y-113751843D01*
X123252343Y-113494457D01*
X123289113Y-113347379D01*
X123362652Y-113273840D01*
X123436191Y-113237070D01*
X123583269Y-113237070D01*
X123656808Y-113273840D01*
X123730347Y-113347379D01*
X123767117Y-113494457D01*
X123767117Y-113751843D01*
X123730347Y-113898921D01*
X123656808Y-113972460D01*
X123583269Y-114009230D01*
X123436191Y-114009230D01*
X124502507Y-114009230D02*
X124061273Y-114009230D01*
X124281890Y-114009230D02*
X124281890Y-113237070D01*
X124208351Y-113347379D01*
X124134812Y-113420918D01*
X124061273Y-113457687D01*
D11*
%TO.C,IC2*%
X158675000Y-78950000D02*
X157200000Y-78950000D01*
X156850000Y-84300000D02*
X156850000Y-79300000D01*
X153150000Y-84300000D02*
X156850000Y-84300000D01*
X153150000Y-79300000D02*
X153150000Y-84300000D01*
X156850000Y-79300000D02*
X153150000Y-79300000D01*
%TO.C,IC1*%
X180075000Y-79125000D02*
X178600000Y-79125000D01*
X178250000Y-84475000D02*
X178250000Y-79475000D01*
X174550000Y-84475000D02*
X178250000Y-84475000D01*
X174550000Y-79475000D02*
X174550000Y-84475000D01*
X178250000Y-79475000D02*
X174550000Y-79475000D01*
D12*
%TO.C,R37*%
X88302000Y-108143564D02*
X88302000Y-105089436D01*
X91022000Y-108143564D02*
X91022000Y-105089436D01*
%TO.C,R36*%
X92366000Y-108143564D02*
X92366000Y-105089436D01*
X95086000Y-108143564D02*
X95086000Y-105089436D01*
D13*
%TO.C,IC207*%
X200003009Y-86362400D02*
G75*
G03*
X200003009Y-86362400I-359209J0D01*
G01*
D14*
X193657800Y-95870400D02*
X201057800Y-95870400D01*
X200557800Y-95870400D02*
X200557800Y-85490400D01*
X193657800Y-85490400D02*
X193657800Y-95870400D01*
X201057800Y-85490400D02*
X193657800Y-85490400D01*
X201057800Y-95870400D02*
X201057800Y-85490400D01*
%TO.C,IC14*%
X111904000Y-124951000D02*
X111904000Y-112031000D01*
X111904000Y-112031000D02*
X111404000Y-112031000D01*
X111404000Y-112031000D02*
X104504000Y-112031000D01*
X104504000Y-112031000D02*
X104504000Y-124951000D01*
X111404000Y-124951000D02*
X111404000Y-112031000D01*
X104504000Y-124951000D02*
X111404000Y-124951000D01*
X111404000Y-124951000D02*
X111904000Y-124951000D01*
D15*
%TO.C,IC3*%
X168275000Y-122161300D02*
X177165000Y-122161300D01*
X168275000Y-123253500D02*
X168275000Y-122186700D01*
X168275000Y-124269500D02*
X168275000Y-123253500D01*
X168275000Y-125336300D02*
X168275000Y-124269500D01*
X177165000Y-122186700D02*
X177165000Y-125336300D01*
X168656000Y-121805700D02*
X176784000Y-121805700D01*
X176784000Y-125717300D02*
X168656000Y-125717300D01*
X177165000Y-122186700D02*
G75*
G03*
X176784000Y-121805700I-381000J0D01*
G01*
X168656000Y-125717300D02*
G75*
G02*
X168275000Y-125336300I0J381000D01*
G01*
X177165000Y-125336300D02*
G75*
G02*
X176784000Y-125717300I-381000J0D01*
G01*
X168656000Y-121805700D02*
G75*
G03*
X168275000Y-122186700I0J-381000D01*
G01*
X168275000Y-123253500D02*
G75*
G02*
X168275000Y-124269500I0J-508000D01*
G01*
D12*
%TO.C,IC17*%
X134480000Y-100139500D02*
X134480000Y-97829500D01*
X134480000Y-97829500D02*
X134695000Y-97829500D01*
X134480000Y-100139500D02*
X134480000Y-102449500D01*
X134480000Y-102449500D02*
X134695000Y-102449500D01*
X137300000Y-100139500D02*
X137300000Y-97829500D01*
X137300000Y-97829500D02*
X137085000Y-97829500D01*
X137300000Y-100139500D02*
X137300000Y-102449500D01*
X137300000Y-102449500D02*
X137085000Y-102449500D01*
X137085000Y-102449500D02*
X137085000Y-104139500D01*
%TO.C,J1*%
X146111500Y-102298500D02*
X146111500Y-101348500D01*
X146111500Y-101348500D02*
X145351500Y-101348500D01*
X144716500Y-101538500D02*
X144716500Y-101348500D01*
X144716500Y-101348500D02*
X139576500Y-101348500D01*
X139576500Y-103260970D02*
X139576500Y-102606030D01*
X139576500Y-104518500D02*
X139576500Y-103876030D01*
X139576500Y-101990970D02*
X139576500Y-101348500D01*
X146046500Y-104518500D02*
X139576500Y-104518500D01*
X146046500Y-103260970D02*
X146046500Y-103058500D01*
X146046500Y-104518500D02*
X146046500Y-103876030D01*
D15*
%TO.C,IC211*%
X101701000Y-96088200D02*
X111099000Y-96088200D01*
X111099000Y-99999800D02*
X101701000Y-99999800D01*
X101320000Y-99618800D02*
X101320000Y-96469200D01*
X111480000Y-96469200D02*
X111480000Y-97536000D01*
X111480000Y-97536000D02*
X111480000Y-98552000D01*
X111480000Y-98552000D02*
X111480000Y-99618800D01*
D16*
X111480000Y-99644200D02*
X101320000Y-99644200D01*
D15*
X111480000Y-98552000D02*
G75*
G02*
X111480000Y-97536000I0J508000D01*
G01*
X111099000Y-99999800D02*
G75*
G03*
X111480000Y-99618800I0J381000D01*
G01*
X101320000Y-96469200D02*
G75*
G02*
X101701000Y-96088200I381000J0D01*
G01*
X111099000Y-96088200D02*
G75*
G02*
X111480000Y-96469200I0J-381000D01*
G01*
X101320000Y-99618800D02*
G75*
G03*
X101701000Y-99999800I381000J0D01*
G01*
%TO.C,IC5*%
X155066800Y-118823600D02*
X155066800Y-110695600D01*
X158978400Y-110695600D02*
X158978400Y-118823600D01*
X158597400Y-119204600D02*
X155447800Y-119204600D01*
X155447800Y-110314600D02*
X156514600Y-110314600D01*
X156514600Y-110314600D02*
X157530600Y-110314600D01*
X157530600Y-110314600D02*
X158597400Y-110314600D01*
X158622800Y-110314600D02*
X158622800Y-119204600D01*
X158597400Y-119204600D02*
G75*
G03*
X158978400Y-118823600I0J381000D01*
G01*
X155066800Y-110695600D02*
G75*
G02*
X155447800Y-110314600I381000J0D01*
G01*
X155447800Y-119204600D02*
G75*
G02*
X155066800Y-118823600I0J381000D01*
G01*
X158978400Y-110695600D02*
G75*
G03*
X158597400Y-110314600I-381000J0D01*
G01*
X157530600Y-110314600D02*
G75*
G02*
X156514600Y-110314600I-508000J0D01*
G01*
%TO.C,IC6*%
X157302200Y-97614600D02*
X157302200Y-89486600D01*
X161213800Y-89486600D02*
X161213800Y-97614600D01*
X160832800Y-97995600D02*
X157683200Y-97995600D01*
X157683200Y-89105600D02*
X158750000Y-89105600D01*
X158750000Y-89105600D02*
X159766000Y-89105600D01*
X159766000Y-89105600D02*
X160832800Y-89105600D01*
X160858200Y-89105600D02*
X160858200Y-97995600D01*
X160832800Y-97995600D02*
G75*
G03*
X161213800Y-97614600I0J381000D01*
G01*
X157302200Y-89486600D02*
G75*
G02*
X157683200Y-89105600I381000J0D01*
G01*
X157683200Y-97995600D02*
G75*
G02*
X157302200Y-97614600I0J381000D01*
G01*
X161213800Y-89486600D02*
G75*
G03*
X160832800Y-89105600I-381000J0D01*
G01*
X159766000Y-89105600D02*
G75*
G02*
X158750000Y-89105600I-508000J0D01*
G01*
%TO.C,IC4*%
X179069800Y-96725600D02*
X179069800Y-88597600D01*
X182981400Y-88597600D02*
X182981400Y-96725600D01*
X182600400Y-97106600D02*
X179450800Y-97106600D01*
X179450800Y-88216600D02*
X180517600Y-88216600D01*
X180517600Y-88216600D02*
X181533600Y-88216600D01*
X181533600Y-88216600D02*
X182600400Y-88216600D01*
X182625800Y-88216600D02*
X182625800Y-97106600D01*
X182600400Y-97106600D02*
G75*
G03*
X182981400Y-96725600I0J381000D01*
G01*
X179069800Y-88597600D02*
G75*
G02*
X179450800Y-88216600I381000J0D01*
G01*
X179450800Y-97106600D02*
G75*
G02*
X179069800Y-96725600I0J381000D01*
G01*
X182981400Y-88597600D02*
G75*
G03*
X182600400Y-88216600I-381000J0D01*
G01*
X181533600Y-88216600D02*
G75*
G02*
X180517600Y-88216600I-508000J0D01*
G01*
%TO.C,IC201*%
X125602800Y-80469600D02*
X125602800Y-88597600D01*
X121691200Y-88597600D02*
X121691200Y-80469600D01*
X122072200Y-80088600D02*
X125221800Y-80088600D01*
X125221800Y-88978600D02*
X124155000Y-88978600D01*
X124155000Y-88978600D02*
X123139000Y-88978600D01*
X123139000Y-88978600D02*
X122072200Y-88978600D01*
X122046800Y-88978600D02*
X122046800Y-80088600D01*
X122072200Y-80088600D02*
G75*
G03*
X121691200Y-80469600I0J-381000D01*
G01*
X125602800Y-88597600D02*
G75*
G02*
X125221800Y-88978600I-381000J0D01*
G01*
X125221800Y-80088600D02*
G75*
G02*
X125602800Y-80469600I0J-381000D01*
G01*
X121691200Y-88597600D02*
G75*
G03*
X122072200Y-88978600I381000J0D01*
G01*
X123139000Y-88978600D02*
G75*
G02*
X124155000Y-88978600I508000J0D01*
G01*
%TO.C,IC202*%
X196164000Y-116144200D02*
X204292000Y-116144200D01*
X204292000Y-120055800D02*
X196164000Y-120055800D01*
X195783000Y-119674800D02*
X195783000Y-116525200D01*
X204673000Y-116525200D02*
X204673000Y-117592000D01*
X204673000Y-117592000D02*
X204673000Y-118608000D01*
X204673000Y-118608000D02*
X204673000Y-119674800D01*
X204673000Y-119700200D02*
X195783000Y-119700200D01*
X195783000Y-119674800D02*
G75*
G03*
X196164000Y-120055800I381000J0D01*
G01*
X204292000Y-116144200D02*
G75*
G02*
X204673000Y-116525200I0J-381000D01*
G01*
X195783000Y-116525200D02*
G75*
G02*
X196164000Y-116144200I381000J0D01*
G01*
X204292000Y-120055800D02*
G75*
G03*
X204673000Y-119674800I0J381000D01*
G01*
X204673000Y-118608000D02*
G75*
G02*
X204673000Y-117592000I0J508000D01*
G01*
%TO.C,IC209*%
X167843000Y-111787800D02*
X175971000Y-111787800D01*
X175971000Y-115699400D02*
X167843000Y-115699400D01*
X167462000Y-115318400D02*
X167462000Y-112168800D01*
X176352000Y-112168800D02*
X176352000Y-113235600D01*
X176352000Y-113235600D02*
X176352000Y-114251600D01*
X176352000Y-114251600D02*
X176352000Y-115318400D01*
X176352000Y-115343800D02*
X167462000Y-115343800D01*
X167462000Y-115318400D02*
G75*
G03*
X167843000Y-115699400I381000J0D01*
G01*
X175971000Y-111787800D02*
G75*
G02*
X176352000Y-112168800I0J-381000D01*
G01*
X167462000Y-112168800D02*
G75*
G02*
X167843000Y-111787800I381000J0D01*
G01*
X175971000Y-115699400D02*
G75*
G03*
X176352000Y-115318400I0J381000D01*
G01*
X176352000Y-114251600D02*
G75*
G02*
X176352000Y-113235600I0J508000D01*
G01*
%TO.C,IC208*%
X188950400Y-120982600D02*
X180822400Y-120982600D01*
X180822400Y-117071000D02*
X188950400Y-117071000D01*
X189331400Y-117452000D02*
X189331400Y-120601600D01*
X180441400Y-120601600D02*
X180441400Y-119534800D01*
X180441400Y-119534800D02*
X180441400Y-118518800D01*
X180441400Y-118518800D02*
X180441400Y-117452000D01*
X180441400Y-117426600D02*
X189331400Y-117426600D01*
X189331400Y-117452000D02*
G75*
G03*
X188950400Y-117071000I-381000J0D01*
G01*
X180822400Y-120982600D02*
G75*
G02*
X180441400Y-120601600I0J381000D01*
G01*
X189331400Y-120601600D02*
G75*
G02*
X188950400Y-120982600I-381000J0D01*
G01*
X180822400Y-117071000D02*
G75*
G03*
X180441400Y-117452000I0J-381000D01*
G01*
X180441400Y-118518800D02*
G75*
G02*
X180441400Y-119534800I0J-508000D01*
G01*
%TO.C,IC210*%
X139953800Y-111051200D02*
X148843800Y-111051200D01*
X139953800Y-112143400D02*
X139953800Y-111076600D01*
X139953800Y-113159400D02*
X139953800Y-112143400D01*
X139953800Y-114226200D02*
X139953800Y-113159400D01*
X148843800Y-111076600D02*
X148843800Y-114226200D01*
X140334800Y-110695600D02*
X148462800Y-110695600D01*
X148462800Y-114607200D02*
X140334800Y-114607200D01*
X139953800Y-112143400D02*
G75*
G02*
X139953800Y-113159400I0J-508000D01*
G01*
X140334800Y-110695600D02*
G75*
G03*
X139953800Y-111076600I0J-381000D01*
G01*
X148843800Y-114226200D02*
G75*
G02*
X148462800Y-114607200I-381000J0D01*
G01*
X140334800Y-114607200D02*
G75*
G02*
X139953800Y-114226200I0J381000D01*
G01*
X148843800Y-111076600D02*
G75*
G03*
X148462800Y-110695600I-381000J0D01*
G01*
D12*
%TO.C,IC16*%
X136037000Y-121158000D02*
X136037000Y-124608000D01*
X136037000Y-121158000D02*
X136037000Y-119208000D01*
X130917000Y-121158000D02*
X130917000Y-123108000D01*
X130917000Y-121158000D02*
X130917000Y-119208000D01*
D17*
%TO.C,IC15*%
X129301300Y-111495200D02*
G75*
G03*
X129301300Y-111495200I-282700J0D01*
G01*
D14*
X120618600Y-112295200D02*
X129418600Y-112295200D01*
X120218600Y-111895200D02*
X120618600Y-112295200D01*
X120218600Y-103095200D02*
X120218600Y-111895200D01*
X120618600Y-102695200D02*
X120218600Y-103095200D01*
X129418600Y-102695200D02*
X120618600Y-102695200D01*
X129818600Y-103095200D02*
X129418600Y-102695200D01*
X129818600Y-111895200D02*
X129818600Y-103095200D01*
X129418600Y-112295200D02*
X129818600Y-111895200D01*
%TO.C,D216*%
X143799000Y-125595000D02*
X144399000Y-124595000D01*
X144399000Y-124595000D02*
X144999000Y-125595000D01*
X144999000Y-125595000D02*
X143799000Y-125595000D01*
D18*
G36*
X145186400Y-124104400D02*
G01*
X145186400Y-124714000D01*
X143611600Y-124714000D01*
X143611600Y-124104400D01*
X145186400Y-124104400D01*
G37*
D14*
%TO.C,D214*%
X146720000Y-125595000D02*
X147320000Y-124595000D01*
X147320000Y-124595000D02*
X147920000Y-125595000D01*
X147920000Y-125595000D02*
X146720000Y-125595000D01*
D18*
G36*
X148107400Y-124104400D02*
G01*
X148107400Y-124714000D01*
X146532600Y-124714000D01*
X146532600Y-124104400D01*
X148107400Y-124104400D01*
G37*
D13*
%TO.C,Q1*%
X125960000Y-118690000D02*
X122960000Y-118690000D01*
X122960000Y-118690000D02*
X122960000Y-114990000D01*
X122960000Y-114990000D02*
X125960000Y-114990000D01*
X125960000Y-114990000D02*
X125960000Y-118690000D01*
%TO.C,IC2*%
D17*
X156239761Y-82374523D02*
X156239761Y-81104523D01*
X154909285Y-82253571D02*
X154969761Y-82314047D01*
X155151190Y-82374523D01*
X155272142Y-82374523D01*
X155453571Y-82314047D01*
X155574523Y-82193095D01*
X155635000Y-82072142D01*
X155695476Y-81830238D01*
X155695476Y-81648809D01*
X155635000Y-81406904D01*
X155574523Y-81285952D01*
X155453571Y-81165000D01*
X155272142Y-81104523D01*
X155151190Y-81104523D01*
X154969761Y-81165000D01*
X154909285Y-81225476D01*
X154425476Y-81225476D02*
X154365000Y-81165000D01*
X154244047Y-81104523D01*
X153941666Y-81104523D01*
X153820714Y-81165000D01*
X153760238Y-81225476D01*
X153699761Y-81346428D01*
X153699761Y-81467380D01*
X153760238Y-81648809D01*
X154485952Y-82374523D01*
X153699761Y-82374523D01*
%TO.C,IC1*%
X177639761Y-82549523D02*
X177639761Y-81279523D01*
X176309285Y-82428571D02*
X176369761Y-82489047D01*
X176551190Y-82549523D01*
X176672142Y-82549523D01*
X176853571Y-82489047D01*
X176974523Y-82368095D01*
X177035000Y-82247142D01*
X177095476Y-82005238D01*
X177095476Y-81823809D01*
X177035000Y-81581904D01*
X176974523Y-81460952D01*
X176853571Y-81340000D01*
X176672142Y-81279523D01*
X176551190Y-81279523D01*
X176369761Y-81340000D01*
X176309285Y-81400476D01*
X175099761Y-82549523D02*
X175825476Y-82549523D01*
X175462619Y-82549523D02*
X175462619Y-81279523D01*
X175583571Y-81460952D01*
X175704523Y-81581904D01*
X175825476Y-81642380D01*
%TO.C,R37*%
D19*
X92394380Y-105973642D02*
X91918190Y-105640309D01*
X92394380Y-105402214D02*
X91394380Y-105402214D01*
X91394380Y-105783166D01*
X91442000Y-105878404D01*
X91489619Y-105926023D01*
X91584857Y-105973642D01*
X91727714Y-105973642D01*
X91822952Y-105926023D01*
X91870571Y-105878404D01*
X91918190Y-105783166D01*
X91918190Y-105402214D01*
X91394380Y-106306976D02*
X91394380Y-106926023D01*
X91775333Y-106592690D01*
X91775333Y-106735547D01*
X91822952Y-106830785D01*
X91870571Y-106878404D01*
X91965809Y-106926023D01*
X92203904Y-106926023D01*
X92299142Y-106878404D01*
X92346761Y-106830785D01*
X92394380Y-106735547D01*
X92394380Y-106449833D01*
X92346761Y-106354595D01*
X92299142Y-106306976D01*
X91394380Y-107259357D02*
X91394380Y-107926023D01*
X92394380Y-107497452D01*
%TO.C,R36*%
X96458380Y-105973642D02*
X95982190Y-105640309D01*
X96458380Y-105402214D02*
X95458380Y-105402214D01*
X95458380Y-105783166D01*
X95506000Y-105878404D01*
X95553619Y-105926023D01*
X95648857Y-105973642D01*
X95791714Y-105973642D01*
X95886952Y-105926023D01*
X95934571Y-105878404D01*
X95982190Y-105783166D01*
X95982190Y-105402214D01*
X95458380Y-106306976D02*
X95458380Y-106926023D01*
X95839333Y-106592690D01*
X95839333Y-106735547D01*
X95886952Y-106830785D01*
X95934571Y-106878404D01*
X96029809Y-106926023D01*
X96267904Y-106926023D01*
X96363142Y-106878404D01*
X96410761Y-106830785D01*
X96458380Y-106735547D01*
X96458380Y-106449833D01*
X96410761Y-106354595D01*
X96363142Y-106306976D01*
X95458380Y-107783166D02*
X95458380Y-107592690D01*
X95506000Y-107497452D01*
X95553619Y-107449833D01*
X95696476Y-107354595D01*
X95886952Y-107306976D01*
X96267904Y-107306976D01*
X96363142Y-107354595D01*
X96410761Y-107402214D01*
X96458380Y-107497452D01*
X96458380Y-107687928D01*
X96410761Y-107783166D01*
X96363142Y-107830785D01*
X96267904Y-107878404D01*
X96029809Y-107878404D01*
X95934571Y-107830785D01*
X95886952Y-107783166D01*
X95839333Y-107687928D01*
X95839333Y-107497452D01*
X95886952Y-107402214D01*
X95934571Y-107354595D01*
X96029809Y-107306976D01*
%TO.C,IC207*%
D20*
X200329642Y-84651547D02*
X200329642Y-83445047D01*
X199065690Y-84536642D02*
X199123142Y-84594095D01*
X199295499Y-84651547D01*
X199410404Y-84651547D01*
X199582761Y-84594095D01*
X199697666Y-84479190D01*
X199755118Y-84364285D01*
X199812571Y-84134476D01*
X199812571Y-83962119D01*
X199755118Y-83732309D01*
X199697666Y-83617404D01*
X199582761Y-83502500D01*
X199410404Y-83445047D01*
X199295499Y-83445047D01*
X199123142Y-83502500D01*
X199065690Y-83559952D01*
X198606071Y-83559952D02*
X198548618Y-83502500D01*
X198433714Y-83445047D01*
X198146452Y-83445047D01*
X198031547Y-83502500D01*
X197974095Y-83559952D01*
X197916642Y-83674857D01*
X197916642Y-83789761D01*
X197974095Y-83962119D01*
X198663523Y-84651547D01*
X197916642Y-84651547D01*
X197169761Y-83445047D02*
X197054857Y-83445047D01*
X196939952Y-83502500D01*
X196882499Y-83559952D01*
X196825047Y-83674857D01*
X196767595Y-83904666D01*
X196767595Y-84191928D01*
X196825047Y-84421738D01*
X196882499Y-84536642D01*
X196939952Y-84594095D01*
X197054857Y-84651547D01*
X197169761Y-84651547D01*
X197284666Y-84594095D01*
X197342118Y-84536642D01*
X197399571Y-84421738D01*
X197457023Y-84191928D01*
X197457023Y-83904666D01*
X197399571Y-83674857D01*
X197342118Y-83559952D01*
X197284666Y-83502500D01*
X197169761Y-83445047D01*
X196365428Y-83445047D02*
X195561095Y-83445047D01*
X196078166Y-84651547D01*
%TO.C,IC14*%
X110217095Y-111702547D02*
X110217095Y-110496047D01*
X108953142Y-111587642D02*
X109010595Y-111645095D01*
X109182952Y-111702547D01*
X109297857Y-111702547D01*
X109470214Y-111645095D01*
X109585118Y-111530190D01*
X109642571Y-111415285D01*
X109700023Y-111185476D01*
X109700023Y-111013119D01*
X109642571Y-110783309D01*
X109585118Y-110668404D01*
X109470214Y-110553500D01*
X109297857Y-110496047D01*
X109182952Y-110496047D01*
X109010595Y-110553500D01*
X108953142Y-110610952D01*
X107804095Y-111702547D02*
X108493523Y-111702547D01*
X108148809Y-111702547D02*
X108148809Y-110496047D01*
X108263714Y-110668404D01*
X108378618Y-110783309D01*
X108493523Y-110840761D01*
X106769952Y-110898214D02*
X106769952Y-111702547D01*
X107057214Y-110438595D02*
X107344476Y-111300380D01*
X106597595Y-111300380D01*
%TO.C,IC3*%
D13*
X166173452Y-127312359D02*
X167379952Y-127312359D01*
X166288357Y-126048407D02*
X166230904Y-126105859D01*
X166173452Y-126278216D01*
X166173452Y-126393121D01*
X166230904Y-126565478D01*
X166345809Y-126680383D01*
X166460714Y-126737835D01*
X166690523Y-126795288D01*
X166862880Y-126795288D01*
X167092690Y-126737835D01*
X167207595Y-126680383D01*
X167322500Y-126565478D01*
X167379952Y-126393121D01*
X167379952Y-126278216D01*
X167322500Y-126105859D01*
X167265047Y-126048407D01*
X167379952Y-125646240D02*
X167379952Y-124899359D01*
X166920333Y-125301526D01*
X166920333Y-125129169D01*
X166862880Y-125014264D01*
X166805428Y-124956811D01*
X166690523Y-124899359D01*
X166403261Y-124899359D01*
X166288357Y-124956811D01*
X166230904Y-125014264D01*
X166173452Y-125129169D01*
X166173452Y-125473883D01*
X166230904Y-125588788D01*
X166288357Y-125646240D01*
%TO.C,IC17*%
D19*
X138592380Y-98687119D02*
X137592380Y-98687119D01*
X138497142Y-99734738D02*
X138544761Y-99687119D01*
X138592380Y-99544261D01*
X138592380Y-99449023D01*
X138544761Y-99306166D01*
X138449523Y-99210928D01*
X138354285Y-99163309D01*
X138163809Y-99115690D01*
X138020952Y-99115690D01*
X137830476Y-99163309D01*
X137735238Y-99210928D01*
X137640000Y-99306166D01*
X137592380Y-99449023D01*
X137592380Y-99544261D01*
X137640000Y-99687119D01*
X137687619Y-99734738D01*
X138592380Y-100687119D02*
X138592380Y-100115690D01*
X138592380Y-100401404D02*
X137592380Y-100401404D01*
X137735238Y-100306166D01*
X137830476Y-100210928D01*
X137878095Y-100115690D01*
X137592380Y-101020452D02*
X137592380Y-101687119D01*
X138592380Y-101258547D01*
%TO.C,J1*%
X144922833Y-98956880D02*
X144922833Y-99671166D01*
X144970452Y-99814023D01*
X145065690Y-99909261D01*
X145208547Y-99956880D01*
X145303785Y-99956880D01*
X143922833Y-99956880D02*
X144494261Y-99956880D01*
X144208547Y-99956880D02*
X144208547Y-98956880D01*
X144303785Y-99099738D01*
X144399023Y-99194976D01*
X144494261Y-99242595D01*
%TO.C,IC211*%
D21*
X116765815Y-98494547D02*
X116765815Y-97288047D01*
X115501863Y-98379642D02*
X115559315Y-98437095D01*
X115731672Y-98494547D01*
X115846577Y-98494547D01*
X116018934Y-98437095D01*
X116133839Y-98322190D01*
X116191291Y-98207285D01*
X116248744Y-97977476D01*
X116248744Y-97805119D01*
X116191291Y-97575309D01*
X116133839Y-97460404D01*
X116018934Y-97345500D01*
X115846577Y-97288047D01*
X115731672Y-97288047D01*
X115559315Y-97345500D01*
X115501863Y-97402952D01*
X115042244Y-97402952D02*
X114984791Y-97345500D01*
X114869887Y-97288047D01*
X114582625Y-97288047D01*
X114467720Y-97345500D01*
X114410267Y-97402952D01*
X114352815Y-97517857D01*
X114352815Y-97632761D01*
X114410267Y-97805119D01*
X115099696Y-98494547D01*
X114352815Y-98494547D01*
X113203767Y-98494547D02*
X113893196Y-98494547D01*
X113548482Y-98494547D02*
X113548482Y-97288047D01*
X113663387Y-97460404D01*
X113778291Y-97575309D01*
X113893196Y-97632761D01*
X112054720Y-98494547D02*
X112744148Y-98494547D01*
X112399434Y-98494547D02*
X112399434Y-97288047D01*
X112514339Y-97460404D01*
X112629244Y-97575309D01*
X112744148Y-97632761D01*
%TO.C,IC5*%
D13*
X158554359Y-109543547D02*
X158554359Y-108337047D01*
X157290407Y-109428642D02*
X157347859Y-109486095D01*
X157520216Y-109543547D01*
X157635121Y-109543547D01*
X157807478Y-109486095D01*
X157922383Y-109371190D01*
X157979835Y-109256285D01*
X158037288Y-109026476D01*
X158037288Y-108854119D01*
X157979835Y-108624309D01*
X157922383Y-108509404D01*
X157807478Y-108394500D01*
X157635121Y-108337047D01*
X157520216Y-108337047D01*
X157347859Y-108394500D01*
X157290407Y-108451952D01*
X156198811Y-108337047D02*
X156773335Y-108337047D01*
X156830788Y-108911571D01*
X156773335Y-108854119D01*
X156658430Y-108796666D01*
X156371169Y-108796666D01*
X156256264Y-108854119D01*
X156198811Y-108911571D01*
X156141359Y-109026476D01*
X156141359Y-109313738D01*
X156198811Y-109428642D01*
X156256264Y-109486095D01*
X156371169Y-109543547D01*
X156658430Y-109543547D01*
X156773335Y-109486095D01*
X156830788Y-109428642D01*
%TO.C,IC6*%
X161094359Y-88334547D02*
X161094359Y-87128047D01*
X159830407Y-88219642D02*
X159887859Y-88277095D01*
X160060216Y-88334547D01*
X160175121Y-88334547D01*
X160347478Y-88277095D01*
X160462383Y-88162190D01*
X160519835Y-88047285D01*
X160577288Y-87817476D01*
X160577288Y-87645119D01*
X160519835Y-87415309D01*
X160462383Y-87300404D01*
X160347478Y-87185500D01*
X160175121Y-87128047D01*
X160060216Y-87128047D01*
X159887859Y-87185500D01*
X159830407Y-87242952D01*
X158796264Y-87128047D02*
X159026073Y-87128047D01*
X159140978Y-87185500D01*
X159198430Y-87242952D01*
X159313335Y-87415309D01*
X159370788Y-87645119D01*
X159370788Y-88104738D01*
X159313335Y-88219642D01*
X159255883Y-88277095D01*
X159140978Y-88334547D01*
X158911169Y-88334547D01*
X158796264Y-88277095D01*
X158738811Y-88219642D01*
X158681359Y-88104738D01*
X158681359Y-87817476D01*
X158738811Y-87702571D01*
X158796264Y-87645119D01*
X158911169Y-87587666D01*
X159140978Y-87587666D01*
X159255883Y-87645119D01*
X159313335Y-87702571D01*
X159370788Y-87817476D01*
%TO.C,IC4*%
X182684359Y-87445547D02*
X182684359Y-86239047D01*
X181420407Y-87330642D02*
X181477859Y-87388095D01*
X181650216Y-87445547D01*
X181765121Y-87445547D01*
X181937478Y-87388095D01*
X182052383Y-87273190D01*
X182109835Y-87158285D01*
X182167288Y-86928476D01*
X182167288Y-86756119D01*
X182109835Y-86526309D01*
X182052383Y-86411404D01*
X181937478Y-86296500D01*
X181765121Y-86239047D01*
X181650216Y-86239047D01*
X181477859Y-86296500D01*
X181420407Y-86353952D01*
X180386264Y-86641214D02*
X180386264Y-87445547D01*
X180673526Y-86181595D02*
X180960788Y-87043380D01*
X180213907Y-87043380D01*
%TO.C,IC201*%
D20*
X126491642Y-79317547D02*
X126491642Y-78111047D01*
X125227690Y-79202642D02*
X125285142Y-79260095D01*
X125457499Y-79317547D01*
X125572404Y-79317547D01*
X125744761Y-79260095D01*
X125859666Y-79145190D01*
X125917118Y-79030285D01*
X125974571Y-78800476D01*
X125974571Y-78628119D01*
X125917118Y-78398309D01*
X125859666Y-78283404D01*
X125744761Y-78168500D01*
X125572404Y-78111047D01*
X125457499Y-78111047D01*
X125285142Y-78168500D01*
X125227690Y-78225952D01*
X124768071Y-78225952D02*
X124710618Y-78168500D01*
X124595714Y-78111047D01*
X124308452Y-78111047D01*
X124193547Y-78168500D01*
X124136095Y-78225952D01*
X124078642Y-78340857D01*
X124078642Y-78455761D01*
X124136095Y-78628119D01*
X124825523Y-79317547D01*
X124078642Y-79317547D01*
X123331761Y-78111047D02*
X123216857Y-78111047D01*
X123101952Y-78168500D01*
X123044499Y-78225952D01*
X122987047Y-78340857D01*
X122929595Y-78570666D01*
X122929595Y-78857928D01*
X122987047Y-79087738D01*
X123044499Y-79202642D01*
X123101952Y-79260095D01*
X123216857Y-79317547D01*
X123331761Y-79317547D01*
X123446666Y-79260095D01*
X123504118Y-79202642D01*
X123561571Y-79087738D01*
X123619023Y-78857928D01*
X123619023Y-78570666D01*
X123561571Y-78340857D01*
X123504118Y-78225952D01*
X123446666Y-78168500D01*
X123331761Y-78111047D01*
X121780547Y-79317547D02*
X122469976Y-79317547D01*
X122125261Y-79317547D02*
X122125261Y-78111047D01*
X122240166Y-78283404D01*
X122355071Y-78398309D01*
X122469976Y-78455761D01*
%TO.C,IC202*%
X206063547Y-114922757D02*
X204857047Y-114922757D01*
X205948642Y-116186709D02*
X206006095Y-116129257D01*
X206063547Y-115956900D01*
X206063547Y-115841995D01*
X206006095Y-115669638D01*
X205891190Y-115554733D01*
X205776285Y-115497281D01*
X205546476Y-115439828D01*
X205374119Y-115439828D01*
X205144309Y-115497281D01*
X205029404Y-115554733D01*
X204914500Y-115669638D01*
X204857047Y-115841995D01*
X204857047Y-115956900D01*
X204914500Y-116129257D01*
X204971952Y-116186709D01*
X204971952Y-116646328D02*
X204914500Y-116703781D01*
X204857047Y-116818685D01*
X204857047Y-117105947D01*
X204914500Y-117220852D01*
X204971952Y-117278304D01*
X205086857Y-117335757D01*
X205201761Y-117335757D01*
X205374119Y-117278304D01*
X206063547Y-116588876D01*
X206063547Y-117335757D01*
X204857047Y-118082638D02*
X204857047Y-118197542D01*
X204914500Y-118312447D01*
X204971952Y-118369900D01*
X205086857Y-118427352D01*
X205316666Y-118484804D01*
X205603928Y-118484804D01*
X205833738Y-118427352D01*
X205948642Y-118369900D01*
X206006095Y-118312447D01*
X206063547Y-118197542D01*
X206063547Y-118082638D01*
X206006095Y-117967733D01*
X205948642Y-117910281D01*
X205833738Y-117852828D01*
X205603928Y-117795376D01*
X205316666Y-117795376D01*
X205086857Y-117852828D01*
X204971952Y-117910281D01*
X204914500Y-117967733D01*
X204857047Y-118082638D01*
X204971952Y-118944423D02*
X204914500Y-119001876D01*
X204857047Y-119116781D01*
X204857047Y-119404042D01*
X204914500Y-119518947D01*
X204971952Y-119576400D01*
X205086857Y-119633852D01*
X205201761Y-119633852D01*
X205374119Y-119576400D01*
X206063547Y-118886971D01*
X206063547Y-119633852D01*
%TO.C,IC209*%
D21*
X178377547Y-111312672D02*
X177171047Y-111312672D01*
X178262642Y-112576625D02*
X178320095Y-112519172D01*
X178377547Y-112346815D01*
X178377547Y-112231910D01*
X178320095Y-112059553D01*
X178205190Y-111944648D01*
X178090285Y-111887196D01*
X177860476Y-111829744D01*
X177688119Y-111829744D01*
X177458309Y-111887196D01*
X177343404Y-111944648D01*
X177228500Y-112059553D01*
X177171047Y-112231910D01*
X177171047Y-112346815D01*
X177228500Y-112519172D01*
X177285952Y-112576625D01*
X177285952Y-113036244D02*
X177228500Y-113093696D01*
X177171047Y-113208601D01*
X177171047Y-113495863D01*
X177228500Y-113610767D01*
X177285952Y-113668220D01*
X177400857Y-113725672D01*
X177515761Y-113725672D01*
X177688119Y-113668220D01*
X178377547Y-112978791D01*
X178377547Y-113725672D01*
X177171047Y-114472553D02*
X177171047Y-114587458D01*
X177228500Y-114702363D01*
X177285952Y-114759815D01*
X177400857Y-114817267D01*
X177630666Y-114874720D01*
X177917928Y-114874720D01*
X178147738Y-114817267D01*
X178262642Y-114759815D01*
X178320095Y-114702363D01*
X178377547Y-114587458D01*
X178377547Y-114472553D01*
X178320095Y-114357648D01*
X178262642Y-114300196D01*
X178147738Y-114242744D01*
X177917928Y-114185291D01*
X177630666Y-114185291D01*
X177400857Y-114242744D01*
X177285952Y-114300196D01*
X177228500Y-114357648D01*
X177171047Y-114472553D01*
X178377547Y-115449244D02*
X178377547Y-115679053D01*
X178320095Y-115793958D01*
X178262642Y-115851410D01*
X178090285Y-115966315D01*
X177860476Y-116023767D01*
X177400857Y-116023767D01*
X177285952Y-115966315D01*
X177228500Y-115908863D01*
X177171047Y-115793958D01*
X177171047Y-115564148D01*
X177228500Y-115449244D01*
X177285952Y-115391791D01*
X177400857Y-115334339D01*
X177688119Y-115334339D01*
X177803023Y-115391791D01*
X177860476Y-115449244D01*
X177917928Y-115564148D01*
X177917928Y-115793958D01*
X177860476Y-115908863D01*
X177803023Y-115966315D01*
X177688119Y-116023767D01*
%TO.C,IC208*%
X178746452Y-121478327D02*
X179952952Y-121478327D01*
X178861357Y-120214374D02*
X178803904Y-120271827D01*
X178746452Y-120444184D01*
X178746452Y-120559089D01*
X178803904Y-120731446D01*
X178918809Y-120846351D01*
X179033714Y-120903803D01*
X179263523Y-120961255D01*
X179435880Y-120961255D01*
X179665690Y-120903803D01*
X179780595Y-120846351D01*
X179895500Y-120731446D01*
X179952952Y-120559089D01*
X179952952Y-120444184D01*
X179895500Y-120271827D01*
X179838047Y-120214374D01*
X179838047Y-119754755D02*
X179895500Y-119697303D01*
X179952952Y-119582398D01*
X179952952Y-119295136D01*
X179895500Y-119180232D01*
X179838047Y-119122779D01*
X179723142Y-119065327D01*
X179608238Y-119065327D01*
X179435880Y-119122779D01*
X178746452Y-119812208D01*
X178746452Y-119065327D01*
X179952952Y-118318446D02*
X179952952Y-118203541D01*
X179895500Y-118088636D01*
X179838047Y-118031184D01*
X179723142Y-117973732D01*
X179493333Y-117916279D01*
X179206071Y-117916279D01*
X178976261Y-117973732D01*
X178861357Y-118031184D01*
X178803904Y-118088636D01*
X178746452Y-118203541D01*
X178746452Y-118318446D01*
X178803904Y-118433351D01*
X178861357Y-118490803D01*
X178976261Y-118548255D01*
X179206071Y-118605708D01*
X179493333Y-118605708D01*
X179723142Y-118548255D01*
X179838047Y-118490803D01*
X179895500Y-118433351D01*
X179952952Y-118318446D01*
X179435880Y-117226851D02*
X179493333Y-117341755D01*
X179550785Y-117399208D01*
X179665690Y-117456660D01*
X179723142Y-117456660D01*
X179838047Y-117399208D01*
X179895500Y-117341755D01*
X179952952Y-117226851D01*
X179952952Y-116997041D01*
X179895500Y-116882136D01*
X179838047Y-116824684D01*
X179723142Y-116767232D01*
X179665690Y-116767232D01*
X179550785Y-116824684D01*
X179493333Y-116882136D01*
X179435880Y-116997041D01*
X179435880Y-117226851D01*
X179378428Y-117341755D01*
X179320976Y-117399208D01*
X179206071Y-117456660D01*
X178976261Y-117456660D01*
X178861357Y-117399208D01*
X178803904Y-117341755D01*
X178746452Y-117226851D01*
X178746452Y-116997041D01*
X178803904Y-116882136D01*
X178861357Y-116824684D01*
X178976261Y-116767232D01*
X179206071Y-116767232D01*
X179320976Y-116824684D01*
X179378428Y-116882136D01*
X179435880Y-116997041D01*
%TO.C,IC210*%
X147259327Y-108019547D02*
X147259327Y-106813047D01*
X145995374Y-107904642D02*
X146052827Y-107962095D01*
X146225184Y-108019547D01*
X146340089Y-108019547D01*
X146512446Y-107962095D01*
X146627351Y-107847190D01*
X146684803Y-107732285D01*
X146742255Y-107502476D01*
X146742255Y-107330119D01*
X146684803Y-107100309D01*
X146627351Y-106985404D01*
X146512446Y-106870500D01*
X146340089Y-106813047D01*
X146225184Y-106813047D01*
X146052827Y-106870500D01*
X145995374Y-106927952D01*
X145535755Y-106927952D02*
X145478303Y-106870500D01*
X145363398Y-106813047D01*
X145076136Y-106813047D01*
X144961232Y-106870500D01*
X144903779Y-106927952D01*
X144846327Y-107042857D01*
X144846327Y-107157761D01*
X144903779Y-107330119D01*
X145593208Y-108019547D01*
X144846327Y-108019547D01*
X143697279Y-108019547D02*
X144386708Y-108019547D01*
X144041993Y-108019547D02*
X144041993Y-106813047D01*
X144156898Y-106985404D01*
X144271803Y-107100309D01*
X144386708Y-107157761D01*
X142950398Y-106813047D02*
X142835493Y-106813047D01*
X142720589Y-106870500D01*
X142663136Y-106927952D01*
X142605684Y-107042857D01*
X142548232Y-107272666D01*
X142548232Y-107559928D01*
X142605684Y-107789738D01*
X142663136Y-107904642D01*
X142720589Y-107962095D01*
X142835493Y-108019547D01*
X142950398Y-108019547D01*
X143065303Y-107962095D01*
X143122755Y-107904642D01*
X143180208Y-107789738D01*
X143237660Y-107559928D01*
X143237660Y-107272666D01*
X143180208Y-107042857D01*
X143122755Y-106927952D01*
X143065303Y-106870500D01*
X142950398Y-106813047D01*
%TO.C,R234*%
D20*
X150818547Y-120593309D02*
X150244023Y-120191142D01*
X150818547Y-119903881D02*
X149612047Y-119903881D01*
X149612047Y-120363500D01*
X149669500Y-120478404D01*
X149726952Y-120535857D01*
X149841857Y-120593309D01*
X150014214Y-120593309D01*
X150129119Y-120535857D01*
X150186571Y-120478404D01*
X150244023Y-120363500D01*
X150244023Y-119903881D01*
X149726952Y-121052928D02*
X149669500Y-121110381D01*
X149612047Y-121225285D01*
X149612047Y-121512547D01*
X149669500Y-121627452D01*
X149726952Y-121684904D01*
X149841857Y-121742357D01*
X149956761Y-121742357D01*
X150129119Y-121684904D01*
X150818547Y-120995476D01*
X150818547Y-121742357D01*
X149612047Y-122144523D02*
X149612047Y-122891404D01*
X150071666Y-122489238D01*
X150071666Y-122661595D01*
X150129119Y-122776500D01*
X150186571Y-122833952D01*
X150301476Y-122891404D01*
X150588738Y-122891404D01*
X150703642Y-122833952D01*
X150761095Y-122776500D01*
X150818547Y-122661595D01*
X150818547Y-122316881D01*
X150761095Y-122201976D01*
X150703642Y-122144523D01*
X150014214Y-123925547D02*
X150818547Y-123925547D01*
X149554595Y-123638285D02*
X150416380Y-123351023D01*
X150416380Y-124097904D01*
%TO.C,R236*%
X142182547Y-120720309D02*
X141608023Y-120318142D01*
X142182547Y-120030881D02*
X140976047Y-120030881D01*
X140976047Y-120490500D01*
X141033500Y-120605404D01*
X141090952Y-120662857D01*
X141205857Y-120720309D01*
X141378214Y-120720309D01*
X141493119Y-120662857D01*
X141550571Y-120605404D01*
X141608023Y-120490500D01*
X141608023Y-120030881D01*
X141090952Y-121179928D02*
X141033500Y-121237381D01*
X140976047Y-121352285D01*
X140976047Y-121639547D01*
X141033500Y-121754452D01*
X141090952Y-121811904D01*
X141205857Y-121869357D01*
X141320761Y-121869357D01*
X141493119Y-121811904D01*
X142182547Y-121122476D01*
X142182547Y-121869357D01*
X140976047Y-122271523D02*
X140976047Y-123018404D01*
X141435666Y-122616238D01*
X141435666Y-122788595D01*
X141493119Y-122903500D01*
X141550571Y-122960952D01*
X141665476Y-123018404D01*
X141952738Y-123018404D01*
X142067642Y-122960952D01*
X142125095Y-122903500D01*
X142182547Y-122788595D01*
X142182547Y-122443881D01*
X142125095Y-122328976D01*
X142067642Y-122271523D01*
X140976047Y-124052547D02*
X140976047Y-123822738D01*
X141033500Y-123707833D01*
X141090952Y-123650381D01*
X141263309Y-123535476D01*
X141493119Y-123478023D01*
X141952738Y-123478023D01*
X142067642Y-123535476D01*
X142125095Y-123592928D01*
X142182547Y-123707833D01*
X142182547Y-123937642D01*
X142125095Y-124052547D01*
X142067642Y-124110000D01*
X141952738Y-124167452D01*
X141665476Y-124167452D01*
X141550571Y-124110000D01*
X141493119Y-124052547D01*
X141435666Y-123937642D01*
X141435666Y-123707833D01*
X141493119Y-123592928D01*
X141550571Y-123535476D01*
X141665476Y-123478023D01*
%TO.C,C245*%
X129685142Y-116148309D02*
X129742595Y-116090857D01*
X129800047Y-115918500D01*
X129800047Y-115803595D01*
X129742595Y-115631238D01*
X129627690Y-115516333D01*
X129512785Y-115458881D01*
X129282976Y-115401428D01*
X129110619Y-115401428D01*
X128880809Y-115458881D01*
X128765904Y-115516333D01*
X128651000Y-115631238D01*
X128593547Y-115803595D01*
X128593547Y-115918500D01*
X128651000Y-116090857D01*
X128708452Y-116148309D01*
X128708452Y-116607928D02*
X128651000Y-116665381D01*
X128593547Y-116780285D01*
X128593547Y-117067547D01*
X128651000Y-117182452D01*
X128708452Y-117239904D01*
X128823357Y-117297357D01*
X128938261Y-117297357D01*
X129110619Y-117239904D01*
X129800047Y-116550476D01*
X129800047Y-117297357D01*
X128995714Y-118331500D02*
X129800047Y-118331500D01*
X128536095Y-118044238D02*
X129397880Y-117756976D01*
X129397880Y-118503857D01*
X128593547Y-119538000D02*
X128593547Y-118963476D01*
X129168071Y-118906023D01*
X129110619Y-118963476D01*
X129053166Y-119078381D01*
X129053166Y-119365642D01*
X129110619Y-119480547D01*
X129168071Y-119538000D01*
X129282976Y-119595452D01*
X129570238Y-119595452D01*
X129685142Y-119538000D01*
X129742595Y-119480547D01*
X129800047Y-119365642D01*
X129800047Y-119078381D01*
X129742595Y-118963476D01*
X129685142Y-118906023D01*
%TO.C,C246*%
X120096642Y-115830809D02*
X120154095Y-115773357D01*
X120211547Y-115601000D01*
X120211547Y-115486095D01*
X120154095Y-115313738D01*
X120039190Y-115198833D01*
X119924285Y-115141381D01*
X119694476Y-115083928D01*
X119522119Y-115083928D01*
X119292309Y-115141381D01*
X119177404Y-115198833D01*
X119062500Y-115313738D01*
X119005047Y-115486095D01*
X119005047Y-115601000D01*
X119062500Y-115773357D01*
X119119952Y-115830809D01*
X119119952Y-116290428D02*
X119062500Y-116347881D01*
X119005047Y-116462785D01*
X119005047Y-116750047D01*
X119062500Y-116864952D01*
X119119952Y-116922404D01*
X119234857Y-116979857D01*
X119349761Y-116979857D01*
X119522119Y-116922404D01*
X120211547Y-116232976D01*
X120211547Y-116979857D01*
X119407214Y-118014000D02*
X120211547Y-118014000D01*
X118947595Y-117726738D02*
X119809380Y-117439476D01*
X119809380Y-118186357D01*
X119005047Y-119163047D02*
X119005047Y-118933238D01*
X119062500Y-118818333D01*
X119119952Y-118760881D01*
X119292309Y-118645976D01*
X119522119Y-118588523D01*
X119981738Y-118588523D01*
X120096642Y-118645976D01*
X120154095Y-118703428D01*
X120211547Y-118818333D01*
X120211547Y-119048142D01*
X120154095Y-119163047D01*
X120096642Y-119220500D01*
X119981738Y-119277952D01*
X119694476Y-119277952D01*
X119579571Y-119220500D01*
X119522119Y-119163047D01*
X119464666Y-119048142D01*
X119464666Y-118818333D01*
X119522119Y-118703428D01*
X119579571Y-118645976D01*
X119694476Y-118588523D01*
%TO.C,IC16*%
D19*
X137329380Y-119705619D02*
X136329380Y-119705619D01*
X137234142Y-120753238D02*
X137281761Y-120705619D01*
X137329380Y-120562761D01*
X137329380Y-120467523D01*
X137281761Y-120324666D01*
X137186523Y-120229428D01*
X137091285Y-120181809D01*
X136900809Y-120134190D01*
X136757952Y-120134190D01*
X136567476Y-120181809D01*
X136472238Y-120229428D01*
X136377000Y-120324666D01*
X136329380Y-120467523D01*
X136329380Y-120562761D01*
X136377000Y-120705619D01*
X136424619Y-120753238D01*
X137329380Y-121705619D02*
X137329380Y-121134190D01*
X137329380Y-121419904D02*
X136329380Y-121419904D01*
X136472238Y-121324666D01*
X136567476Y-121229428D01*
X136615095Y-121134190D01*
X136329380Y-122562761D02*
X136329380Y-122372285D01*
X136377000Y-122277047D01*
X136424619Y-122229428D01*
X136567476Y-122134190D01*
X136757952Y-122086571D01*
X137138904Y-122086571D01*
X137234142Y-122134190D01*
X137281761Y-122181809D01*
X137329380Y-122277047D01*
X137329380Y-122467523D01*
X137281761Y-122562761D01*
X137234142Y-122610380D01*
X137138904Y-122658000D01*
X136900809Y-122658000D01*
X136805571Y-122610380D01*
X136757952Y-122562761D01*
X136710333Y-122467523D01*
X136710333Y-122277047D01*
X136757952Y-122181809D01*
X136805571Y-122134190D01*
X136900809Y-122086571D01*
%TO.C,IC15*%
D22*
X131923166Y-105908766D02*
X130234066Y-105908766D01*
X131762300Y-107678300D02*
X131842733Y-107597866D01*
X131923166Y-107356566D01*
X131923166Y-107195700D01*
X131842733Y-106954400D01*
X131681866Y-106793533D01*
X131521000Y-106713100D01*
X131199266Y-106632666D01*
X130957966Y-106632666D01*
X130636233Y-106713100D01*
X130475366Y-106793533D01*
X130314500Y-106954400D01*
X130234066Y-107195700D01*
X130234066Y-107356566D01*
X130314500Y-107597866D01*
X130394933Y-107678300D01*
X131923166Y-109286966D02*
X131923166Y-108321766D01*
X131923166Y-108804366D02*
X130234066Y-108804366D01*
X130475366Y-108643500D01*
X130636233Y-108482633D01*
X130716666Y-108321766D01*
X130234066Y-110815200D02*
X130234066Y-110010866D01*
X131038400Y-109930433D01*
X130957966Y-110010866D01*
X130877533Y-110171733D01*
X130877533Y-110573900D01*
X130957966Y-110734766D01*
X131038400Y-110815200D01*
X131199266Y-110895633D01*
X131601433Y-110895633D01*
X131762300Y-110815200D01*
X131842733Y-110734766D01*
X131923166Y-110573900D01*
X131923166Y-110171733D01*
X131842733Y-110010866D01*
X131762300Y-109930433D01*
%TO.C,D216*%
D20*
X145103747Y-117920281D02*
X143897247Y-117920281D01*
X143897247Y-118207542D01*
X143954700Y-118379900D01*
X144069604Y-118494804D01*
X144184509Y-118552257D01*
X144414319Y-118609709D01*
X144586676Y-118609709D01*
X144816485Y-118552257D01*
X144931390Y-118494804D01*
X145046295Y-118379900D01*
X145103747Y-118207542D01*
X145103747Y-117920281D01*
X144012152Y-119069328D02*
X143954700Y-119126781D01*
X143897247Y-119241685D01*
X143897247Y-119528947D01*
X143954700Y-119643852D01*
X144012152Y-119701304D01*
X144127057Y-119758757D01*
X144241961Y-119758757D01*
X144414319Y-119701304D01*
X145103747Y-119011876D01*
X145103747Y-119758757D01*
X145103747Y-120907804D02*
X145103747Y-120218376D01*
X145103747Y-120563090D02*
X143897247Y-120563090D01*
X144069604Y-120448185D01*
X144184509Y-120333281D01*
X144241961Y-120218376D01*
X143897247Y-121941947D02*
X143897247Y-121712138D01*
X143954700Y-121597233D01*
X144012152Y-121539781D01*
X144184509Y-121424876D01*
X144414319Y-121367423D01*
X144873938Y-121367423D01*
X144988842Y-121424876D01*
X145046295Y-121482328D01*
X145103747Y-121597233D01*
X145103747Y-121827042D01*
X145046295Y-121941947D01*
X144988842Y-121999400D01*
X144873938Y-122056852D01*
X144586676Y-122056852D01*
X144471771Y-121999400D01*
X144414319Y-121941947D01*
X144356866Y-121827042D01*
X144356866Y-121597233D01*
X144414319Y-121482328D01*
X144471771Y-121424876D01*
X144586676Y-121367423D01*
%TO.C,D214*%
X147821547Y-117869481D02*
X146615047Y-117869481D01*
X146615047Y-118156742D01*
X146672500Y-118329100D01*
X146787404Y-118444004D01*
X146902309Y-118501457D01*
X147132119Y-118558909D01*
X147304476Y-118558909D01*
X147534285Y-118501457D01*
X147649190Y-118444004D01*
X147764095Y-118329100D01*
X147821547Y-118156742D01*
X147821547Y-117869481D01*
X146729952Y-119018528D02*
X146672500Y-119075981D01*
X146615047Y-119190885D01*
X146615047Y-119478147D01*
X146672500Y-119593052D01*
X146729952Y-119650504D01*
X146844857Y-119707957D01*
X146959761Y-119707957D01*
X147132119Y-119650504D01*
X147821547Y-118961076D01*
X147821547Y-119707957D01*
X147821547Y-120857004D02*
X147821547Y-120167576D01*
X147821547Y-120512290D02*
X146615047Y-120512290D01*
X146787404Y-120397385D01*
X146902309Y-120282481D01*
X146959761Y-120167576D01*
X147017214Y-121891147D02*
X147821547Y-121891147D01*
X146557595Y-121603885D02*
X147419380Y-121316623D01*
X147419380Y-122063504D01*
%TD*%
M02*
